 <svg  version="1.0" xmlns="http://www.w3.org/2000/svg"  width="300.000000pt" height="300.000000pt" viewBox="0 0 300.000000 300.000000"  preserveAspectRatio="xMidYMid meet">  <g transform="translate(0.000000,300.000000) scale(0.100000,-0.100000)" fill="#ddf0f3" stroke="none"> <path d="M1480 2413 c-75 -12 -203 -49 -255 -73 -62 -29 -145 -93 -134 -104 4 -4 31 7 60 25 104 61 178 87 323 114 75 14 102 15 168 5 76 -11 180 -48 193 -69 8 -14 1 -14 -63 3 -122 33 -289 29 -436 -9 -89 -23 -235 -88 -241 -106 -3 -10 -21 -33 -40 -54 -19 -20 -35 -45 -35 -56 0 -11 -4 -17 -10 -14 -18 11 -74 -27 -138 -91 l-63 -64 1 -320 c1 -192 5 -332 11 -350 9 -26 105 -121 339 -336 341 -315 363 -334 394 -334 12 0 38 15 57 32 375 348 453 422 567 533 l102 101 1 60 c1 64 0 515 0 578 -1 34 -9 46 -82 117 -45 43 -89 79 -99 79 -10 0 -21 8 -25 18 -3 9 -23 29 -45 44 -22 15 -40 35 -40 43 0 35 -168 74 -321 75 -102 0 -210 -25 -300 -71 -77 -38 -77 -38 -59 -49 21 -13 3 -27 -44 -36 -28 -5 -37 -4 -32 4 4 7 2 20 -4 31 -8 16 -5 23 17 41 14 11 38 23 52 26 14 3 55 18 91 34 130 57 237 69 402 47 90 -13 115 -20 154 -46 25 -18 48 -30 51 -27 12 12 -33 56 -85 82 -31 16 -66 37 -77 47 -62 58 -230 91 -355 70z m-190 -167 c0 -11 -61 -47 -70 -41 -15 9 9 38 25 31 7 -2 18 0 26 5 16 10 19 11 19 5z m505 -37 c65 -12 149 -47 198 -81 18 -13 38 -22 44 -20 8 2 13 -8 13 -28 0 -16 -4 -30 -10 -30 -5 0 -10 6 -10 14 0 31 -200 111 -304 122 -77 8 -181 -16 -253 -56 -29 -17 -56 -30 -59 -30 -15 0 33 43 74 67 87 51 185 65 307 42z m-590 -39 c-3 -6 -10 -10 -16 -10 -10 0 -12 33 -2 44 9 9 26 -22 18 -34z m-45 -20 c0 -21 -4 -42 -10 -45 -6 -4 -10 13 -10 45 0 32 4 49 10 45 6 -3 10 -24 10 -45z m-48 8 c6 -17 -1 -38 -13 -38 -5 0 -9 11 -9 25 0 26 14 34 22 13z m298 -17 c-11 -22 -63 -30 -75 -11 -3 6 0 10 8 10 8 0 27 7 43 15 34 17 39 14 24 -14z m338 3 c38 -11 24 -21 -30 -23 -51 -1 -123 -29 -210 -83 -30 -18 -40 -20 -50 -10 -9 9 -9 15 0 24 10 10 15 10 22 -2 8 -12 16 -8 47 21 67 64 150 92 221 73z m-538 -24 c0 -11 -7 -20 -15 -20 -8 0 -15 9 -15 20 0 11 7 20 15 20 8 0 15 -9 15 -20z m-142 -41 c-1 -13 -7 -23 -13 -22 -13 3 -18 30 -11 50 10 24 29 1 24 -28z m752 10 c0 -10 -7 -19 -15 -19 -15 0 -21 31 -9 43 11 10 24 -3 24 -24z m-710 -29 c0 -27 -4 -50 -10 -50 -11 0 -14 83 -3 93 12 12 13 8 13 -43z m280 10 c0 -21 -5 -30 -16 -30 -11 0 -14 5 -10 16 3 9 6 22 6 30 0 8 5 14 10 14 6 0 10 -13 10 -30z m520 5 c0 -25 -14 -34 -24 -16 -8 12 3 41 15 41 5 0 9 -11 9 -25z m-618 -30 c2 -30 -1 -45 -9 -45 -7 0 -11 17 -11 45 0 25 3 45 8 45 4 0 10 -20 12 -45z m568 14 c0 -17 -4 -28 -10 -24 -5 3 -10 17 -10 31 0 13 5 24 10 24 6 0 10 -14 10 -31z m96 -5 c-5 -13 -10 -14 -18 -6 -6 6 -8 18 -4 28 5 13 10 14 18 6 6 -6 8 -18 4 -28z m-706 1 c0 -25 -14 -34 -24 -16 -8 12 3 41 15 41 5 0 9 -11 9 -25z m755 -5 c8 -13 -4 -50 -16 -50 -5 0 -9 14 -9 30 0 30 13 40 25 20z m-1057 -106 l-53 -51 2 -311 2 -311 103 -98 c57 -54 173 -162 258 -238 85 -77 184 -169 221 -205 l68 -65 232 218 c128 120 274 258 326 307 l93 88 0 304 0 304 -55 54 c-40 40 -55 62 -55 82 0 15 2 28 5 28 2 0 38 -34 80 -76 l75 -75 -1 -322 -1 -322 -344 -320 c-190 -176 -349 -320 -353 -320 -8 0 -441 393 -619 562 l-82 78 -1 330 -1 330 74 68 c72 68 73 68 76 41 3 -23 -6 -38 -50 -80z m867 43 c1 -34 -3 -57 -9 -57 -7 0 -12 26 -13 61 -1 41 2 59 10 56 7 -2 12 -27 12 -60z m-753 -2 c2 -37 -1 -55 -8 -55 -8 0 -12 21 -13 55 0 72 16 72 21 0z m278 25 c0 -16 -4 -30 -10 -30 -5 0 -10 14 -10 30 0 17 5 30 10 30 6 0 10 -13 10 -30z m570 -1 c0 -10 -7 -19 -15 -19 -15 0 -21 31 -9 43 11 10 24 -3 24 -24z m140 -24 c0 -30 -4 -55 -10 -55 -5 0 -10 25 -10 55 0 30 5 55 10 55 6 0 10 -25 10 -55z m-890 20 c0 -16 -6 -25 -15 -25 -15 0 -21 31 -8 43 13 14 23 6 23 -18z m462 0 c4 -17 1 -25 -8 -25 -8 0 -14 11 -14 25 0 14 4 25 9 25 5 0 11 -11 13 -25z m146 -11 c-4 -24 -23 -19 -21 6 1 33 3 34 14 23 6 -6 9 -19 7 -29z m192 11 c0 -16 -6 -25 -15 -25 -15 0 -21 31 -8 43 13 14 23 6 23 -18z m-570 -5 c0 -11 -7 -20 -15 -20 -8 0 -15 9 -15 20 0 11 7 20 15 20 8 0 15 -9 15 -20z m470 -25 c0 -25 -4 -45 -10 -45 -11 0 -14 73 -3 83 11 12 13 8 13 -38z m-330 16 c0 -23 -16 -36 -25 -21 -9 14 1 40 15 40 5 0 10 -9 10 -19z m140 -32 c0 -28 -4 -48 -9 -45 -5 4 -9 26 -9 51 0 25 4 45 9 45 5 0 9 -23 9 -51z m-553 15 c8 -21 -13 -42 -28 -27 -13 13 -5 43 11 43 6 0 13 -7 17 -16z m133 -14 c0 -16 -4 -30 -10 -30 -5 0 -10 14 -10 30 0 17 5 30 10 30 6 0 10 -13 10 -30z m320 -80 c0 -67 -4 -110 -10 -110 -6 0 -10 43 -10 110 0 67 4 110 10 110 6 0 10 -43 10 -110z m-278 75 c4 -17 1 -25 -8 -25 -8 0 -14 11 -14 25 0 14 4 25 9 25 5 0 11 -11 13 -25z m716 -7 c-5 -32 -28 -35 -28 -4 0 17 5 26 16 26 10 0 14 -7 12 -22z m-618 -13 c0 -16 -6 -25 -15 -25 -16 0 -19 9 -9 34 9 25 24 19 24 -9z m238 -3 c2 -15 -2 -22 -12 -22 -11 0 -16 9 -16 26 0 31 23 28 28 -4z m96 12 c7 -19 -2 -37 -15 -29 -12 8 -12 45 0 45 5 0 12 -7 15 -16z m46 -10 c0 -14 -5 -24 -11 -22 -6 2 -10 7 -10 11 1 4 1 14 1 22 0 8 5 15 10 15 6 0 10 -12 10 -26z m190 6 c0 -11 -7 -20 -15 -20 -8 0 -15 9 -15 20 0 11 7 20 15 20 8 0 15 -9 15 -20z m-756 -6 c8 -22 8 -24 -8 -24 -18 0 -29 16 -21 30 9 15 22 12 29 -6z m234 -1 c-5 -25 -28 -28 -28 -4 0 12 6 21 16 21 9 0 14 -7 12 -17z m92 -8 c0 -26 -14 -33 -25 -15 -9 14 1 40 15 40 5 0 10 -11 10 -25z m-420 -25 c0 -16 -4 -30 -10 -30 -5 0 -10 14 -10 30 0 17 5 30 10 30 6 0 10 -13 10 -30z m140 -10 c0 -16 -4 -30 -10 -30 -5 0 -10 14 -10 30 0 17 5 30 10 30 6 0 10 -13 10 -30z m48 -6 c-5 -28 -28 -29 -28 -1 0 13 3 27 7 31 10 10 25 -10 21 -30z m522 0 c0 -31 -23 -28 -28 4 -2 15 2 22 12 22 11 0 16 -9 16 -26z m-660 -4 c0 -11 -7 -20 -15 -20 -15 0 -21 21 -8 33 12 13 23 7 23 -13z m180 -5 c0 -26 -14 -33 -25 -15 -9 14 1 40 15 40 5 0 10 -11 10 -25z m48 -36 c1 -21 -3 -41 -9 -44 -5 -4 -9 18 -9 52 0 37 3 53 9 44 5 -7 9 -31 9 -52z m42 5 c0 -34 -4 -53 -10 -49 -5 3 -10 28 -10 56 0 27 5 49 10 49 6 0 10 -25 10 -56z m290 31 c0 -26 -14 -33 -25 -15 -9 14 1 40 15 40 5 0 10 -11 10 -25z m48 -31 c0 -30 -4 -44 -11 -41 -13 4 -22 61 -13 84 11 27 24 3 24 -43z m237 31 c0 -10 -6 -20 -12 -22 -8 -3 -13 5 -13 22 0 17 5 25 13 23 6 -3 12 -13 12 -23z m115 -6 c0 -20 -24 -26 -35 -9 -8 13 14 42 26 34 5 -3 9 -14 9 -25z m-1110 1 c0 -13 -7 -20 -20 -20 -19 0 -27 20 -13 33 13 14 33 6 33 -13z m190 -25 c0 -25 -4 -45 -10 -45 -5 0 -10 20 -10 45 0 25 5 45 10 45 6 0 10 -20 10 -45z m321 -7 c2 -26 0 -50 -4 -54 -4 -4 -7 19 -7 51 0 69 7 70 11 3z m107 35 c-5 -25 -28 -28 -28 -4 0 12 6 21 16 21 9 0 14 -7 12 -17z m-568 -80 c0 -17 -4 -35 -10 -38 -6 -4 -10 14 -10 47 0 38 3 49 10 38 5 -8 10 -29 10 -47z m50 27 c0 -16 -4 -30 -10 -30 -5 0 -10 3 -10 8 0 4 -3 17 -6 30 -5 16 -2 22 10 22 11 0 16 -9 16 -30z m189 -12 c1 -5 -6 -8 -14 -8 -15 0 -21 31 -8 44 7 6 20 -17 22 -36z m371 12 c0 -16 -4 -30 -10 -30 -5 0 -10 14 -10 30 0 17 5 30 10 30 6 0 10 -13 10 -30z m150 -1 c0 -10 -7 -19 -15 -19 -15 0 -21 31 -9 43 11 10 24 -3 24 -24z m230 -5 c0 -21 -4 -33 -10 -29 -5 3 -10 19 -10 36 0 16 5 29 10 29 6 0 10 -16 10 -36z m110 -55 c0 -43 -3 -79 -7 -79 -5 0 -18 8 -31 18 -26 20 -43 114 -23 126 10 7 17 -43 11 -83 -1 -13 1 -13 15 -1 12 10 15 25 12 57 -4 44 0 56 14 47 5 -3 9 -41 9 -85z m-1160 21 c0 -30 -4 -40 -16 -40 -11 0 -14 5 -10 16 3 9 6 27 6 40 0 13 5 24 10 24 6 0 10 -18 10 -40z m460 -25 c15 -8 37 -26 48 -40 26 -32 59 -32 85 1 35 45 73 54 224 54 154 0 187 -11 221 -70 13 -24 24 -30 50 -30 30 0 32 -2 32 -36 0 -35 -1 -36 -29 -31 -26 6 -29 3 -35 -27 -10 -54 -61 -123 -107 -146 -36 -19 -55 -21 -139 -18 -87 3 -100 6 -132 30 -20 15 -51 57 -72 97 -49 94 -61 93 -122 -9 -60 -101 -93 -120 -207 -120 -83 0 -135 16 -176 53 -27 25 -60 92 -61 123 0 18 -6 22 -32 20 -31 -1 -33 1 -33 34 0 33 2 35 34 36 26 0 37 6 48 28 29 56 63 66 226 66 111 0 155 -4 177 -15z m-472 -28 c6 3 12 -2 12 -11 0 -9 -8 -16 -17 -16 -9 0 -24 -7 -34 -16 -15 -14 -17 -13 -14 18 2 18 3 37 4 42 1 5 9 2 19 -6 9 -9 23 -13 30 -11z m12 -222 c0 -37 -4 -65 -10 -65 -6 0 -10 28 -10 65 0 37 4 65 10 65 6 0 10 -28 10 -65z m1119 -40 c-1 -72 -5 -105 -12 -105 -9 0 -11 31 -9 105 4 138 23 138 21 0z m-550 48 c10 -21 24 -65 31 -97 11 -55 11 -61 -6 -74 -18 -13 -88 -12 -101 2 -14 13 34 206 51 206 3 0 14 -17 25 -37z m-516 -150 c4 -108 4 -113 -16 -113 -17 0 -19 5 -13 38 3 20 6 75 6 122 0 121 17 87 23 -47z m1011 31 c-3 -52 0 -91 6 -99 13 -16 2 -45 -16 -45 -21 0 -29 27 -14 45 9 11 11 40 8 100 -3 46 -3 86 0 89 15 15 20 -13 16 -90z m-1069 -35 c1 -38 -3 -59 -11 -59 -11 0 -17 106 -7 123 11 18 18 -8 18 -64z m115 36 c0 -14 -6 -25 -14 -25 -9 0 -12 8 -8 25 2 14 8 25 13 25 5 0 9 -11 9 -25z m354 -24 c-7 -56 11 -93 57 -117 34 -17 67 -5 98 36 18 25 19 35 12 74 -5 25 -7 46 -4 46 2 0 26 -15 53 -34 27 -18 71 -41 98 -51 l49 -18 -34 -71 c-89 -180 -154 -246 -243 -246 -54 0 -89 19 -139 76 -47 54 -144 244 -127 249 60 16 116 44 145 71 20 19 37 34 39 34 1 0 0 -22 -4 -49z m540 33 c7 -18 0 -34 -15 -34 -5 0 -9 11 -9 25 0 28 15 34 24 9z m-844 -40 c0 -14 -5 -24 -11 -22 -6 2 -10 7 -10 11 1 4 1 14 1 22 0 8 5 15 10 15 6 0 10 -12 10 -26z m800 -5 c0 -20 -15 -26 -25 -9 -9 15 3 43 15 35 5 -3 10 -15 10 -26z m164 -34 c3 -9 -1 -18 -10 -22 -19 -7 -28 2 -21 22 8 19 23 19 31 0z m-965 -73 c1 -23 -3 -32 -11 -29 -7 2 -13 9 -12 15 1 7 2 31 3 55 3 36 4 39 11 17 4 -14 8 -40 9 -58z m751 54 c0 -14 -4 -28 -10 -31 -6 -4 -10 7 -10 24 0 17 5 31 10 31 6 0 10 -11 10 -24z m48 -31 c1 -32 -2 -55 -8 -55 -5 0 -10 24 -10 55 0 30 4 55 8 55 4 0 9 -25 10 -55z m-708 16 c0 -10 -3 -21 -6 -24 -13 -12 -21 3 -17 28 6 27 23 24 23 -4z m610 -46 c0 -30 -4 -55 -10 -55 -11 0 -14 93 -3 103 12 12 13 8 13 -48z m-748 -2 c8 -32 -4 -103 -16 -103 -20 0 -39 45 -31 71 14 47 39 63 47 32z m916 -27 c14 -35 13 -38 -7 -57 -38 -36 -47 -18 -42 85 2 28 34 9 49 -28z m-778 4 c0 -21 -4 -28 -14 -24 -8 3 -11 15 -8 30 6 34 22 30 22 -6z m45 -88 c-11 -29 -24 1 -20 46 5 63 6 64 16 12 5 -25 7 -51 4 -58z m524 20 c1 -20 -3 -32 -10 -30 -6 2 -10 7 -10 11 1 4 1 26 2 50 0 32 2 37 9 22 5 -11 9 -35 9 -53z m-659 33 c0 -16 -6 -25 -15 -25 -15 0 -21 31 -8 43 13 14 23 6 23 -18z m40 -5 c0 -16 -4 -30 -10 -30 -5 0 -10 14 -10 30 0 17 5 30 10 30 6 0 10 -13 10 -30z m714 22 c8 -13 -11 -35 -23 -28 -16 10 -14 36 3 36 8 0 17 -4 20 -8z m46 -23 c0 -10 -7 -19 -15 -19 -15 0 -21 31 -9 43 11 10 24 -3 24 -24z m-710 -34 c0 -18 -4 -23 -15 -19 -8 4 -15 15 -15 25 0 10 7 19 15 19 9 0 15 -9 15 -25z m-50 -51 c0 -27 -4 -43 -10 -39 -5 3 -10 24 -10 46 0 21 5 39 10 39 6 0 10 -21 10 -46z m50 -9 c0 -14 -6 -25 -14 -25 -9 0 -12 8 -8 25 2 14 8 25 13 25 5 0 9 -11 9 -25z m48 -3 c2 -15 -2 -22 -12 -22 -11 0 -16 9 -16 26 0 31 23 28 28 -4z m572 -3 c0 -10 -7 -19 -15 -19 -15 0 -21 31 -9 43 11 10 24 -3 24 -24z m-530 -75 c0 -48 -4 -73 -10 -69 -5 3 -10 40 -10 81 0 48 4 73 10 69 6 -3 10 -40 10 -81z m430 20 c0 -19 -4 -34 -10 -34 -5 0 -10 18 -10 41 0 24 4 38 10 34 6 -3 10 -22 10 -41z m90 2 c0 -14 -4 -28 -10 -31 -6 -4 -10 7 -10 24 0 17 5 31 10 31 6 0 10 -11 10 -24z m-568 -16 c3 -20 0 -30 -9 -30 -8 0 -13 12 -13 30 0 17 4 30 9 30 5 0 11 -13 13 -30z m98 5 c0 -16 -6 -25 -15 -25 -9 0 -15 9 -15 25 0 16 6 25 15 25 9 0 15 -9 15 -25z m423 -57 c-12 -21 -21 -4 -18 35 4 57 6 59 15 12 4 -22 6 -43 3 -47z m-93 22 c0 -22 -4 -40 -10 -40 -5 0 -10 18 -10 40 0 22 5 40 10 40 6 0 10 -18 10 -40z m-332 -45 c-1 -25 -5 -45 -10 -45 -4 0 -8 20 -8 45 0 25 4 45 9 45 5 0 9 -20 9 -45z m50 23 c-5 -32 -28 -35 -28 -4 0 17 5 26 16 26 10 0 14 -7 12 -22z m332 -11 c0 -26 -9 -39 -20 -32 -10 6 0 55 11 55 5 0 9 -10 9 -23z m-250 -109 c0 -50 -3 -88 -7 -84 -11 10 -11 176 -1 176 4 0 8 -41 8 -92z m-86 20 c-3 -4 -9 -8 -15 -8 -11 0 -12 53 -2 64 9 9 25 -43 17 -56z m195 0 c1 -5 -6 -8 -14 -8 -15 0 -21 31 -8 44 7 6 20 -17 22 -36z m-59 -58 c0 -40 -4 -70 -10 -70 -6 0 -10 30 -10 70 0 40 4 70 10 70 6 0 10 -30 10 -70z m-90 24 c0 -14 -5 -24 -11 -22 -6 2 -10 7 -10 11 1 4 1 14 1 22 0 8 5 15 10 15 6 0 10 -12 10 -26z m149 -36 c1 -5 -6 -8 -14 -8 -15 0 -21 31 -8 44 7 6 20 -17 22 -36z"/> <path d="M1128 1714 c-37 -19 -48 -43 -48 -102 0 -57 27 -104 79 -139 28 -19 48 -23 108 -23 107 0 130 13 180 101 61 107 61 104 18 144 l-36 35 -137 0 c-101 -1 -144 -5 -164 -16z m32 -19 c0 -8 0 -18 1 -22 0 -4 -4 -9 -10 -11 -6 -2 -11 8 -11 22 0 14 5 26 10 26 6 0 10 -7 10 -15z m50 -10 c0 -26 -14 -33 -25 -15 -9 14 1 40 15 40 5 0 10 -11 10 -25z m134 8 c9 -22 -10 -41 -25 -26 -13 13 -5 43 10 43 5 0 12 -8 15 -17z m45 -25 c1 -5 -6 -8 -14 -8 -15 0 -21 31 -8 44 7 6 20 -17 22 -36z m45 26 c10 -25 7 -34 -9 -34 -9 0 -15 9 -15 25 0 28 15 34 24 9z m-307 -78 c-4 -9 -11 -16 -17 -16 -11 0 -14 33 -3 44 11 10 26 -11 20 -28z m126 15 c5 -22 0 -31 -20 -31 -13 0 -18 31 -6 43 11 12 21 8 26 -12z m45 -9 c2 -15 -2 -22 -12 -22 -11 0 -16 9 -16 26 0 31 23 28 28 -4z m44 3 c4 -17 1 -25 -8 -25 -8 0 -14 11 -14 25 0 14 4 25 9 25 5 0 11 -11 13 -25z m98 -6 c0 -10 -7 -19 -15 -19 -15 0 -21 31 -9 43 11 10 24 -3 24 -24z m-275 -59 c0 -13 -6 -25 -13 -28 -8 -2 -12 7 -12 28 0 21 4 30 13 27 6 -2 12 -14 12 -27z m45 6 c0 -14 -4 -28 -10 -31 -6 -4 -10 7 -10 24 0 17 5 31 10 31 6 0 10 -11 10 -24z m40 -6 c0 -16 -4 -30 -10 -30 -5 0 -10 14 -10 30 0 17 5 30 10 30 6 0 10 -13 10 -30z m140 -6 c0 -26 -17 -33 -26 -9 -8 20 3 48 16 40 5 -3 10 -17 10 -31z m-90 -54 c0 -11 -7 -20 -15 -20 -15 0 -21 21 -8 33 12 13 23 7 23 -13z"/> <path d="M1664 1720 c-12 -5 -31 -22 -43 -39 l-22 -30 35 -73 c53 -111 69 -122 179 -126 83 -3 95 -1 126 20 60 41 94 135 70 193 -9 23 -13 26 -16 13 -7 -29 -26 -21 -20 8 3 20 -1 27 -20 35 -30 11 -260 11 -289 -1z m63 -44 c-4 -9 -11 -16 -17 -16 -11 0 -14 33 -3 44 11 10 26 -11 20 -28z m89 7 c-4 -24 -26 -29 -26 -5 0 10 3 22 6 25 11 10 22 -2 20 -20z m44 1 c0 -14 -5 -24 -11 -22 -6 2 -10 7 -10 11 1 4 1 14 1 22 0 8 5 15 10 15 6 0 10 -12 10 -26z m45 1 c0 -10 -6 -20 -12 -22 -8 -3 -13 5 -13 22 0 17 5 25 13 23 6 -3 12 -13 12 -23z m-175 -66 c0 -10 -7 -19 -15 -19 -15 0 -21 31 -9 43 11 10 24 -3 24 -24z m82 6 c4 -17 1 -25 -8 -25 -8 0 -14 11 -14 25 0 14 4 25 9 25 5 0 11 -11 13 -25z m138 -6 c0 -10 -7 -19 -15 -19 -15 0 -21 31 -9 43 11 10 24 -3 24 -24z m-90 1 c0 -11 -7 -20 -15 -20 -8 0 -15 9 -15 20 0 11 7 20 15 20 8 0 15 -9 15 -20z m-90 -66 c0 -13 -4 -24 -10 -24 -5 0 -10 14 -10 31 0 17 4 28 10 24 6 -3 10 -17 10 -31z m44 -15 c-3 -5 -9 -9 -15 -9 -11 0 -12 43 -2 54 9 9 25 -33 17 -45z m46 15 c0 -24 -14 -32 -25 -14 -9 14 4 52 16 45 5 -4 9 -17 9 -31z m-132 4 c-2 -13 -7 -23 -13 -23 -5 0 -11 10 -13 23 -2 15 2 22 13 22 11 0 15 -7 13 -22z m222 -4 c0 -14 -5 -24 -11 -22 -6 2 -10 7 -10 11 1 4 1 14 1 22 0 8 5 15 10 15 6 0 10 -12 10 -26z m-135 -57 c0 -26 -20 -25 -23 2 -3 16 1 22 10 19 7 -3 13 -12 13 -21z m90 0 c0 -26 -20 -25 -23 2 -3 16 1 22 10 19 7 -3 13 -12 13 -21z"/> <path d="M1426 1201 c-16 -3 -31 -12 -34 -18 -3 -10 32 -13 153 -13 119 0 156 3 153 12 -3 7 -15 15 -29 19 -30 9 -204 9 -243 0z"/> <path d="M1470 1130 c0 -19 40 -40 76 -40 39 0 84 22 84 41 0 5 -35 8 -80 7 -44 0 -80 -4 -80 -8z"/> <path d="M960 2287 c-31 -15 -37 -52 -14 -78 32 -35 74 -18 74 31 0 15 -8 34 -18 43 -15 13 -22 14 -42 4z m35 -43 c0 -22 -5 -29 -20 -29 -24 0 -34 43 -13 56 21 14 33 4 33 -27z"/> <path d="M1270 2178 c-20 -9 -22 -12 -8 -15 9 -2 29 3 45 11 23 12 24 15 8 15 -11 0 -31 -5 -45 -11z"/> <path d="M2222 2148 c-34 -34 14 -102 56 -79 26 14 33 45 15 70 -16 23 -52 28 -71 9z m58 -33 c0 -20 -5 -25 -25 -25 -18 0 -25 5 -25 18 0 10 3 22 7 25 3 4 15 7 25 7 13 0 18 -7 18 -25z"/> <path d="M812 2130 c-15 -25 1 -63 25 -58 25 5 40 35 27 56 -16 25 -37 26 -52 2z m43 -20 c0 -8 -8 -16 -17 -18 -13 -2 -18 3 -18 18 0 15 5 20 18 18 9 -2 17 -10 17 -18z"/> <path d="M684 2035 c-4 -9 -2 -21 4 -27 15 -15 44 -1 40 19 -4 23 -36 29 -44 8z"/> <path d="M2351 2036 c-8 -10 -9 -16 -1 -21 5 -3 10 1 10 9 0 9 5 16 11 16 7 0 9 -9 6 -22 -6 -22 -5 -22 8 -4 24 32 -9 53 -34 22z"/> <path d="M654 1865 c-21 -32 -11 -72 21 -87 51 -23 89 57 47 95 -26 24 -49 21 -68 -8z m54 -7 c14 -14 16 -54 4 -62 -5 -3 -18 -3 -29 0 -20 6 -21 16 -7 62 4 15 17 15 32 0z"/> <path d="M2373 1878 c-31 -40 -19 -94 22 -104 32 -8 54 17 55 60 0 44 -53 74 -77 44z m55 -52 c-2 -23 -8 -31 -23 -31 -15 0 -21 8 -23 29 -4 30 12 48 35 39 9 -4 13 -17 11 -37z"/> <path d="M682 1588 c-17 -17 -15 -45 5 -52 24 -10 51 20 37 41 -14 22 -27 26 -42 11z"/> <path d="M2382 1581 c-20 -12 -10 -46 15 -49 14 -2 23 3 28 17 11 35 -12 52 -43 32z m34 -12 c10 -17 -13 -36 -27 -22 -12 12 -4 33 11 33 5 0 12 -5 16 -11z"/> <path d="M776 1151 c-14 -16 -22 -17 -46 -8 -43 16 -84 -1 -88 -36 -2 -16 -13 -38 -24 -49 -20 -20 -20 -21 -2 -39 16 -15 36 -18 122 -20 56 -1 102 -5 102 -11 0 -5 8 -4 19 2 11 5 33 10 49 10 16 0 37 9 47 20 17 19 17 22 3 37 -9 9 -34 19 -54 22 -33 5 -39 11 -45 37 -3 17 -9 36 -13 42 -11 18 -51 14 -70 -7z m59 -30 c0 -18 -6 -25 -23 -26 -28 -2 -35 8 -27 36 10 30 50 22 50 -10z m-95 -11 c0 -5 -20 -10 -45 -10 -25 0 -45 5 -45 10 0 6 20 10 45 10 25 0 45 -4 45 -10z m210 -70 c0 -6 -58 -10 -155 -10 -85 0 -158 0 -162 -1 -4 0 -9 4 -11 10 -3 8 48 11 162 11 104 0 166 -4 166 -10z"/> <path d="M2262 1154 c-14 -9 -22 -26 -22 -43 0 -27 -3 -29 -51 -33 -59 -6 -90 -29 -73 -56 6 -9 26 -18 45 -20 45 -4 56 -17 29 -32 -18 -10 -25 -8 -43 8 -22 20 -62 21 -81 2 -6 -6 -11 -23 -12 -39 -3 -44 -11 -51 -58 -51 -29 0 -52 -7 -67 -19 l-24 -20 23 -23 22 -23 -32 -11 c-48 -16 -59 -41 -29 -65 22 -18 35 -19 139 -15 78 4 118 10 124 18 13 21 9 45 -8 52 -28 11 -4 26 42 26 50 0 96 32 75 53 -18 18 -13 27 17 27 69 0 77 83 9 88 -50 4 -45 12 9 13 70 2 146 8 170 14 30 7 38 34 17 58 -10 10 -17 27 -15 36 1 10 -6 26 -18 36 -15 14 -30 17 -67 12 -33 -4 -54 -1 -67 9 -25 18 -27 17 -54 -2z m52 -20 c13 -33 7 -45 -21 -42 -22 2 -29 9 -31 31 -3 23 0 27 21 27 14 0 28 -7 31 -16z m136 -23 c0 -9 -79 -21 -93 -14 -4 3 -5 9 -2 14 8 12 95 12 95 0z m28 -73 c-4 -10 -45 -14 -154 -15 -156 -2 -194 1 -194 17 0 6 68 10 176 10 136 0 175 -3 172 -12z m-350 -100 c-2 -25 -8 -34 -25 -36 -20 -3 -23 1 -23 32 0 32 3 36 26 36 23 0 25 -3 22 -32z m176 6 c36 -14 12 -24 -54 -24 -64 0 -81 6 -63 23 8 9 96 9 117 1z m-54 -94 c0 -6 -60 -10 -160 -10 -100 0 -160 4 -160 10 0 6 60 10 160 10 100 0 160 -4 160 -10z m-102 -92 c-3 -9 -41 -14 -131 -16 -109 -2 -127 0 -127 13 0 13 20 15 131 15 100 0 130 -3 127 -12z"/> <path d="M957 974 c-21 -22 -28 -24 -45 -15 -26 14 -97 14 -123 1 -35 -19 -20 -63 25 -71 13 -3 20 -13 20 -32 2 -35 20 -47 74 -47 44 0 50 -7 30 -41 -11 -18 -10 -23 10 -39 20 -17 39 -19 145 -18 128 1 157 7 157 36 0 26 -20 42 -51 42 -34 0 -44 13 -24 30 18 15 19 44 2 58 -7 6 -37 12 -67 14 l-55 3 -6 39 c-6 38 -30 66 -56 66 -6 0 -23 -12 -36 -26z m63 -40 c0 -30 -3 -34 -25 -34 -22 0 -25 4 -25 34 0 19 6 36 13 39 24 8 37 -6 37 -39z m-105 -4 c4 -6 -8 -10 -28 -10 -19 0 -49 -3 -66 -6 -24 -5 -31 -3 -31 10 0 13 11 16 59 16 33 0 63 -4 66 -10z m253 -85 c-10 -10 -313 -6 -316 4 -2 7 48 11 155 13 138 3 177 -2 161 -17z m72 -90 c0 -13 -23 -15 -145 -15 -122 0 -145 2 -145 15 0 13 23 15 145 15 122 0 145 -2 145 -15z"/> <path d="M1257 463 c18 -2 50 -2 70 0 21 2 7 4 -32 4 -38 0 -55 -2 -38 -4z"/> </g> </svg> 